
<svg version="1.1" baseProfile="full" width="310.000" height="620.000" xmlns="http://www.w3.org/2000/svg">
<circle cx="20.000" cy="140.000" r="15.000" fill="#333333" />
<circle cx="50.000" cy="110.000" r="15.000" fill="#333333" />
<circle cx="50.000" cy="140.000" r="15.000" fill="#333333" />
<circle cx="50.000" cy="170.000" r="15.000" fill="#333333" />
<circle cx="80.000" cy="80.000" r="15.000" fill="#333333" />
<circle cx="80.000" cy="110.000" r="15.000" fill="#333333" />
<circle cx="80.000" cy="140.000" r="15.000" fill="#333333" />
<circle cx="80.000" cy="170.000" r="15.000" fill="#333333" />
<circle cx="80.000" cy="200.000" r="15.000" fill="#333333" />
<circle cx="110.000" cy="50.000" r="15.000" fill="#333333" />
<circle cx="110.000" cy="80.000" r="15.000" fill="#333333" />
<circle cx="110.000" cy="110.000" r="15.000" fill="#333333" />
<circle cx="110.000" cy="140.000" r="15.000" fill="#333333" />
<circle cx="110.000" cy="170.000" r="15.000" fill="#333333" />
<circle cx="110.000" cy="200.000" r="15.000" fill="#333333" />
<circle cx="110.000" cy="230.000" r="15.000" fill="#333333" />
<circle cx="140.000" cy="20.000" r="15.000" fill="#333333" />
<circle cx="140.000" cy="50.000" r="15.000" fill="#333333" />
<circle cx="140.000" cy="80.000" r="15.000" fill="#333333" />
<circle cx="140.000" cy="110.000" r="15.000" fill="#333333" />
<circle cx="140.000" cy="140.000" r="15.000" fill="#333333" />
<circle cx="140.000" cy="170.000" r="15.000" fill="#333333" />
<circle cx="140.000" cy="200.000" r="15.000" fill="#333333" />
<circle cx="140.000" cy="230.000" r="15.000" fill="#333333" />
<circle cx="140.000" cy="260.000" r="15.000" fill="#333333" />
<circle cx="170.000" cy="50.000" r="15.000" fill="#333333" />
<circle cx="170.000" cy="80.000" r="15.000" fill="#333333" />
<circle cx="170.000" cy="110.000" r="15.000" fill="#333333" />
<circle cx="170.000" cy="140.000" r="15.000" fill="#333333" />
<circle cx="170.000" cy="170.000" r="15.000" fill="#333333" />
<circle cx="170.000" cy="200.000" r="15.000" fill="#333333" />
<circle cx="170.000" cy="230.000" r="15.000" fill="#333333" />
<circle cx="170.000" cy="260.000" r="15.000" fill="#333333" />
<circle cx="170.000" cy="290.000" r="15.000" fill="#333333" />
<circle cx="200.000" cy="80.000" r="15.000" fill="#333333" />
<circle cx="200.000" cy="110.000" r="15.000" fill="#333333" />
<circle cx="200.000" cy="140.000" r="15.000" fill="#333333" />
<circle cx="200.000" cy="170.000" r="15.000" fill="#333333" />
<circle cx="200.000" cy="200.000" r="15.000" fill="#333333" />
<circle cx="200.000" cy="230.000" r="15.000" fill="#333333" />
<circle cx="200.000" cy="260.000" r="15.000" fill="#333333" />
<circle cx="230.000" cy="110.000" r="15.000" fill="#333333" />
<circle cx="230.000" cy="140.000" r="15.000" fill="#333333" />
<circle cx="230.000" cy="170.000" r="15.000" fill="#333333" />
<circle cx="230.000" cy="200.000" r="15.000" fill="#333333" />
<circle cx="230.000" cy="230.000" r="15.000" fill="#333333" />
<circle cx="260.000" cy="140.000" r="15.000" fill="#333333" />
<circle cx="260.000" cy="170.000" r="15.000" fill="#333333" />
<circle cx="260.000" cy="200.000" r="15.000" fill="#333333" />
<circle cx="290.000" cy="170.000" r="15.000" fill="#333333" />
<rect x="29.000" y="136.000" width="12.000" height="8.000" fill="#0033cc" />
<rect x="59.000" y="136.000" width="12.000" height="8.000" fill="#0033cc" />
<rect x="29.000" y="136.000" width="12.000" height="8.000" fill="#0033cc" />
<rect x="59.000" y="166.000" width="12.000" height="8.000" fill="#6600cc" />
<rect x="89.000" y="136.000" width="12.000" height="8.000" fill="#0033cc" />
<rect x="59.000" y="136.000" width="12.000" height="8.000" fill="#0033cc" />
<rect x="89.000" y="166.000" width="12.000" height="8.000" fill="#6600cc" />
<rect x="59.000" y="166.000" width="12.000" height="8.000" fill="#6600cc" />
<rect x="89.000" y="196.000" width="12.000" height="8.000" fill="#e62e00" />
<rect x="107.000" y="119.000" width="6.000" height="12.000" fill="#0033cc" />
<rect x="89.000" y="136.000" width="12.000" height="8.000" fill="#0033cc" />
<rect x="107.000" y="119.000" width="6.000" height="12.000" fill="#0033cc" />
<rect x="119.000" y="166.000" width="12.000" height="8.000" fill="#6600cc" />
<rect x="89.000" y="166.000" width="12.000" height="8.000" fill="#6600cc" />
<rect x="119.000" y="196.000" width="12.000" height="8.000" fill="#e62e00" />
<rect x="107.000" y="209.000" width="6.000" height="12.000" fill="#e62e00" />
<rect x="89.000" y="196.000" width="12.000" height="8.000" fill="#e62e00" />
<rect x="119.000" y="226.000" width="12.000" height="8.000" fill="#e62e00" />
<rect x="107.000" y="209.000" width="6.000" height="12.000" fill="#e62e00" />
<rect x="119.000" y="166.000" width="12.000" height="8.000" fill="#6600cc" />
<rect x="137.000" y="209.000" width="6.000" height="12.000" fill="#e62e00" />
<rect x="119.000" y="196.000" width="12.000" height="8.000" fill="#e62e00" />
<rect x="119.000" y="226.000" width="12.000" height="8.000" fill="#e62e00" />
<rect x="137.000" y="209.000" width="6.000" height="12.000" fill="#e62e00" />
<circle cx="20.000" cy="140.000" r="11.000" fill="#0033cc" />
<text x="20.000" y="140.000" text-anchor="middle" alignment-baseline="middle" font-size="1.000em" font-family="Arial, Helvetica, sans-serif">C</text>
<circle cx="50.000" cy="140.000" r="11.000" fill="#0033cc" />
<text x="50.000" y="140.000" text-anchor="middle" alignment-baseline="middle" font-size="1.000em" font-family="Arial, Helvetica, sans-serif">C</text>
<circle cx="50.000" cy="170.000" r="11.000" fill="#6600cc" />
<text x="50.000" y="170.000" text-anchor="middle" alignment-baseline="middle" font-size="1.000em" font-family="Arial, Helvetica, sans-serif">J</text>
<circle cx="80.000" cy="140.000" r="11.000" fill="#0033cc" />
<text x="80.000" y="140.000" text-anchor="middle" alignment-baseline="middle" font-size="1.000em" font-family="Arial, Helvetica, sans-serif">C</text>
<circle cx="80.000" cy="170.000" r="11.000" fill="#6600cc" />
<text x="80.000" y="170.000" text-anchor="middle" alignment-baseline="middle" font-size="1.000em" font-family="Arial, Helvetica, sans-serif">J</text>
<circle cx="80.000" cy="200.000" r="11.000" fill="#e62e00" />
<text x="80.000" y="200.000" text-anchor="middle" alignment-baseline="middle" font-size="1.000em" font-family="Arial, Helvetica, sans-serif">B</text>
<circle cx="110.000" cy="110.000" r="11.000" fill="#0033cc" />
<text x="110.000" y="110.000" text-anchor="middle" alignment-baseline="middle" font-size="1.000em" font-family="Arial, Helvetica, sans-serif">C</text>
<circle cx="110.000" cy="140.000" r="11.000" fill="#0033cc" />
<text x="110.000" y="140.000" text-anchor="middle" alignment-baseline="middle" font-size="1.000em" font-family="Arial, Helvetica, sans-serif">C</text>
<circle cx="110.000" cy="170.000" r="11.000" fill="#6600cc" />
<text x="110.000" y="170.000" text-anchor="middle" alignment-baseline="middle" font-size="1.000em" font-family="Arial, Helvetica, sans-serif">J</text>
<circle cx="110.000" cy="200.000" r="11.000" fill="#e62e00" />
<text x="110.000" y="200.000" text-anchor="middle" alignment-baseline="middle" font-size="1.000em" font-family="Arial, Helvetica, sans-serif">B</text>
<circle cx="110.000" cy="230.000" r="11.000" fill="#e62e00" />
<text x="110.000" y="230.000" text-anchor="middle" alignment-baseline="middle" font-size="1.000em" font-family="Arial, Helvetica, sans-serif">B</text>
<circle cx="140.000" cy="170.000" r="11.000" fill="#6600cc" />
<text x="140.000" y="170.000" text-anchor="middle" alignment-baseline="middle" font-size="1.000em" font-family="Arial, Helvetica, sans-serif">J</text>
<circle cx="140.000" cy="200.000" r="11.000" fill="#e62e00" />
<text x="140.000" y="200.000" text-anchor="middle" alignment-baseline="middle" font-size="1.000em" font-family="Arial, Helvetica, sans-serif">B</text>
<circle cx="140.000" cy="230.000" r="11.000" fill="#e62e00" />
<text x="140.000" y="230.000" text-anchor="middle" alignment-baseline="middle" font-size="1.000em" font-family="Arial, Helvetica, sans-serif">B</text>
<circle cx="20.000" cy="450.000" r="15.000" fill="#333333" />
<circle cx="50.000" cy="420.000" r="15.000" fill="#333333" />
<circle cx="50.000" cy="450.000" r="15.000" fill="#333333" />
<circle cx="50.000" cy="480.000" r="15.000" fill="#333333" />
<circle cx="80.000" cy="390.000" r="15.000" fill="#333333" />
<circle cx="80.000" cy="420.000" r="15.000" fill="#333333" />
<circle cx="80.000" cy="450.000" r="15.000" fill="#333333" />
<circle cx="80.000" cy="480.000" r="15.000" fill="#333333" />
<circle cx="80.000" cy="510.000" r="15.000" fill="#333333" />
<circle cx="110.000" cy="360.000" r="15.000" fill="#333333" />
<circle cx="110.000" cy="390.000" r="15.000" fill="#333333" />
<circle cx="110.000" cy="420.000" r="15.000" fill="#333333" />
<circle cx="110.000" cy="450.000" r="15.000" fill="#333333" />
<circle cx="110.000" cy="480.000" r="15.000" fill="#333333" />
<circle cx="110.000" cy="510.000" r="15.000" fill="#333333" />
<circle cx="110.000" cy="540.000" r="15.000" fill="#333333" />
<circle cx="140.000" cy="330.000" r="15.000" fill="#333333" />
<circle cx="140.000" cy="360.000" r="15.000" fill="#333333" />
<circle cx="140.000" cy="390.000" r="15.000" fill="#333333" />
<circle cx="140.000" cy="420.000" r="15.000" fill="#333333" />
<circle cx="140.000" cy="450.000" r="15.000" fill="#333333" />
<circle cx="140.000" cy="480.000" r="15.000" fill="#333333" />
<circle cx="140.000" cy="510.000" r="15.000" fill="#333333" />
<circle cx="140.000" cy="540.000" r="15.000" fill="#333333" />
<circle cx="140.000" cy="570.000" r="15.000" fill="#333333" />
<circle cx="170.000" cy="360.000" r="15.000" fill="#333333" />
<circle cx="170.000" cy="390.000" r="15.000" fill="#333333" />
<circle cx="170.000" cy="420.000" r="15.000" fill="#333333" />
<circle cx="170.000" cy="450.000" r="15.000" fill="#333333" />
<circle cx="170.000" cy="480.000" r="15.000" fill="#333333" />
<circle cx="170.000" cy="510.000" r="15.000" fill="#333333" />
<circle cx="170.000" cy="540.000" r="15.000" fill="#333333" />
<circle cx="170.000" cy="570.000" r="15.000" fill="#333333" />
<circle cx="170.000" cy="600.000" r="15.000" fill="#333333" />
<circle cx="200.000" cy="390.000" r="15.000" fill="#333333" />
<circle cx="200.000" cy="420.000" r="15.000" fill="#333333" />
<circle cx="200.000" cy="450.000" r="15.000" fill="#333333" />
<circle cx="200.000" cy="480.000" r="15.000" fill="#333333" />
<circle cx="200.000" cy="510.000" r="15.000" fill="#333333" />
<circle cx="200.000" cy="540.000" r="15.000" fill="#333333" />
<circle cx="200.000" cy="570.000" r="15.000" fill="#333333" />
<circle cx="230.000" cy="420.000" r="15.000" fill="#333333" />
<circle cx="230.000" cy="450.000" r="15.000" fill="#333333" />
<circle cx="230.000" cy="480.000" r="15.000" fill="#333333" />
<circle cx="230.000" cy="510.000" r="15.000" fill="#333333" />
<circle cx="230.000" cy="540.000" r="15.000" fill="#333333" />
<circle cx="260.000" cy="450.000" r="15.000" fill="#333333" />
<circle cx="260.000" cy="480.000" r="15.000" fill="#333333" />
<circle cx="260.000" cy="510.000" r="15.000" fill="#333333" />
<circle cx="290.000" cy="480.000" r="15.000" fill="#333333" />
<rect x="29.000" y="446.000" width="12.000" height="8.000" fill="#0033cc" />
<rect x="59.000" y="416.000" width="12.000" height="8.000" fill="#ff3399" />
<rect x="59.000" y="446.000" width="12.000" height="8.000" fill="#0033cc" />
<rect x="29.000" y="446.000" width="12.000" height="8.000" fill="#0033cc" />
<rect x="59.000" y="476.000" width="12.000" height="8.000" fill="#6600cc" />
<rect x="89.000" y="386.000" width="12.000" height="8.000" fill="#ff3399" />
<rect x="77.000" y="399.000" width="6.000" height="12.000" fill="#ff3399" />
<rect x="59.000" y="416.000" width="12.000" height="8.000" fill="#ff3399" />
<rect x="77.000" y="399.000" width="6.000" height="12.000" fill="#ff3399" />
<rect x="89.000" y="446.000" width="12.000" height="8.000" fill="#0033cc" />
<rect x="59.000" y="446.000" width="12.000" height="8.000" fill="#0033cc" />
<rect x="89.000" y="476.000" width="12.000" height="8.000" fill="#6600cc" />
<rect x="59.000" y="476.000" width="12.000" height="8.000" fill="#6600cc" />
<rect x="89.000" y="506.000" width="12.000" height="8.000" fill="#e62e00" />
<rect x="107.000" y="369.000" width="6.000" height="12.000" fill="#ff3399" />
<rect x="89.000" y="386.000" width="12.000" height="8.000" fill="#ff3399" />
<rect x="107.000" y="369.000" width="6.000" height="12.000" fill="#ff3399" />
<rect x="107.000" y="429.000" width="6.000" height="12.000" fill="#0033cc" />
<rect x="89.000" y="446.000" width="12.000" height="8.000" fill="#0033cc" />
<rect x="107.000" y="429.000" width="6.000" height="12.000" fill="#0033cc" />
<rect x="119.000" y="476.000" width="12.000" height="8.000" fill="#6600cc" />
<rect x="89.000" y="476.000" width="12.000" height="8.000" fill="#6600cc" />
<rect x="119.000" y="506.000" width="12.000" height="8.000" fill="#e62e00" />
<rect x="107.000" y="519.000" width="6.000" height="12.000" fill="#e62e00" />
<rect x="89.000" y="506.000" width="12.000" height="8.000" fill="#e62e00" />
<rect x="119.000" y="536.000" width="12.000" height="8.000" fill="#e62e00" />
<rect x="107.000" y="519.000" width="6.000" height="12.000" fill="#e62e00" />
<rect x="137.000" y="339.000" width="6.000" height="12.000" fill="#ffffff" />
<rect x="149.000" y="356.000" width="12.000" height="8.000" fill="#ffffff" />
<rect x="137.000" y="339.000" width="6.000" height="12.000" fill="#ffffff" />
<rect x="149.000" y="386.000" width="12.000" height="8.000" fill="#66ccff" />
<rect x="137.000" y="399.000" width="6.000" height="12.000" fill="#66ccff" />
<rect x="137.000" y="429.000" width="6.000" height="12.000" fill="#66ccff" />
<rect x="137.000" y="399.000" width="6.000" height="12.000" fill="#66ccff" />
<rect x="137.000" y="429.000" width="6.000" height="12.000" fill="#66ccff" />
<rect x="119.000" y="476.000" width="12.000" height="8.000" fill="#6600cc" />
<rect x="137.000" y="519.000" width="6.000" height="12.000" fill="#e62e00" />
<rect x="119.000" y="506.000" width="12.000" height="8.000" fill="#e62e00" />
<rect x="119.000" y="536.000" width="12.000" height="8.000" fill="#e62e00" />
<rect x="137.000" y="519.000" width="6.000" height="12.000" fill="#e62e00" />
<rect x="149.000" y="566.000" width="12.000" height="8.000" fill="#99cc00" />
<rect x="149.000" y="356.000" width="12.000" height="8.000" fill="#ffffff" />
<rect x="179.000" y="386.000" width="12.000" height="8.000" fill="#66ccff" />
<rect x="149.000" y="386.000" width="12.000" height="8.000" fill="#66ccff" />
<rect x="179.000" y="416.000" width="12.000" height="8.000" fill="#006600" />
<rect x="179.000" y="446.000" width="12.000" height="8.000" fill="#fdd807" />
<rect x="167.000" y="459.000" width="6.000" height="12.000" fill="#fdd807" />
<rect x="167.000" y="489.000" width="6.000" height="12.000" fill="#fdd807" />
<rect x="167.000" y="459.000" width="6.000" height="12.000" fill="#fdd807" />
<rect x="179.000" y="506.000" width="12.000" height="8.000" fill="#fdd807" />
<rect x="167.000" y="489.000" width="6.000" height="12.000" fill="#fdd807" />
<rect x="167.000" y="549.000" width="6.000" height="12.000" fill="#99cc00" />
<rect x="167.000" y="579.000" width="6.000" height="12.000" fill="#99cc00" />
<rect x="149.000" y="566.000" width="12.000" height="8.000" fill="#99cc00" />
<rect x="167.000" y="549.000" width="6.000" height="12.000" fill="#99cc00" />
<rect x="167.000" y="579.000" width="6.000" height="12.000" fill="#99cc00" />
<rect x="179.000" y="386.000" width="12.000" height="8.000" fill="#66ccff" />
<rect x="209.000" y="416.000" width="12.000" height="8.000" fill="#006600" />
<rect x="179.000" y="416.000" width="12.000" height="8.000" fill="#006600" />
<rect x="179.000" y="446.000" width="12.000" height="8.000" fill="#fdd807" />
<rect x="209.000" y="476.000" width="12.000" height="8.000" fill="#ffccff" />
<rect x="179.000" y="506.000" width="12.000" height="8.000" fill="#fdd807" />
<rect x="209.000" y="536.000" width="12.000" height="8.000" fill="#994d00" />
<rect x="197.000" y="549.000" width="6.000" height="12.000" fill="#994d00" />
<rect x="197.000" y="549.000" width="6.000" height="12.000" fill="#994d00" />
<rect x="227.000" y="429.000" width="6.000" height="12.000" fill="#006600" />
<rect x="209.000" y="416.000" width="12.000" height="8.000" fill="#006600" />
<rect x="239.000" y="446.000" width="12.000" height="8.000" fill="#006600" />
<rect x="227.000" y="429.000" width="6.000" height="12.000" fill="#006600" />
<rect x="239.000" y="476.000" width="12.000" height="8.000" fill="#ffccff" />
<rect x="209.000" y="476.000" width="12.000" height="8.000" fill="#ffccff" />
<rect x="227.000" y="519.000" width="6.000" height="12.000" fill="#994d00" />
<rect x="209.000" y="536.000" width="12.000" height="8.000" fill="#994d00" />
<rect x="227.000" y="519.000" width="6.000" height="12.000" fill="#994d00" />
<rect x="239.000" y="446.000" width="12.000" height="8.000" fill="#006600" />
<rect x="269.000" y="476.000" width="12.000" height="8.000" fill="#ffccff" />
<rect x="257.000" y="489.000" width="6.000" height="12.000" fill="#ffccff" />
<rect x="239.000" y="476.000" width="12.000" height="8.000" fill="#ffccff" />
<rect x="257.000" y="489.000" width="6.000" height="12.000" fill="#ffccff" />
<rect x="269.000" y="476.000" width="12.000" height="8.000" fill="#ffccff" />
<circle cx="20.000" cy="450.000" r="11.000" fill="#0033cc" />
<text x="20.000" y="450.000" text-anchor="middle" alignment-baseline="middle" font-size="1.000em" font-family="Arial, Helvetica, sans-serif">C</text>
<circle cx="50.000" cy="420.000" r="11.000" fill="#ff3399" />
<text x="50.000" y="420.000" text-anchor="middle" alignment-baseline="middle" font-size="1.000em" font-family="Arial, Helvetica, sans-serif">H</text>
<circle cx="50.000" cy="450.000" r="11.000" fill="#0033cc" />
<text x="50.000" y="450.000" text-anchor="middle" alignment-baseline="middle" font-size="1.000em" font-family="Arial, Helvetica, sans-serif">C</text>
<circle cx="50.000" cy="480.000" r="11.000" fill="#6600cc" />
<text x="50.000" y="480.000" text-anchor="middle" alignment-baseline="middle" font-size="1.000em" font-family="Arial, Helvetica, sans-serif">J</text>
<circle cx="80.000" cy="390.000" r="11.000" fill="#ff3399" />
<text x="80.000" y="390.000" text-anchor="middle" alignment-baseline="middle" font-size="1.000em" font-family="Arial, Helvetica, sans-serif">H</text>
<circle cx="80.000" cy="420.000" r="11.000" fill="#ff3399" />
<text x="80.000" y="420.000" text-anchor="middle" alignment-baseline="middle" font-size="1.000em" font-family="Arial, Helvetica, sans-serif">H</text>
<circle cx="80.000" cy="450.000" r="11.000" fill="#0033cc" />
<text x="80.000" y="450.000" text-anchor="middle" alignment-baseline="middle" font-size="1.000em" font-family="Arial, Helvetica, sans-serif">C</text>
<circle cx="80.000" cy="480.000" r="11.000" fill="#6600cc" />
<text x="80.000" y="480.000" text-anchor="middle" alignment-baseline="middle" font-size="1.000em" font-family="Arial, Helvetica, sans-serif">J</text>
<circle cx="80.000" cy="510.000" r="11.000" fill="#e62e00" />
<text x="80.000" y="510.000" text-anchor="middle" alignment-baseline="middle" font-size="1.000em" font-family="Arial, Helvetica, sans-serif">B</text>
<circle cx="110.000" cy="360.000" r="11.000" fill="#ff3399" />
<text x="110.000" y="360.000" text-anchor="middle" alignment-baseline="middle" font-size="1.000em" font-family="Arial, Helvetica, sans-serif">H</text>
<circle cx="110.000" cy="390.000" r="11.000" fill="#ff3399" />
<text x="110.000" y="390.000" text-anchor="middle" alignment-baseline="middle" font-size="1.000em" font-family="Arial, Helvetica, sans-serif">H</text>
<circle cx="110.000" cy="420.000" r="11.000" fill="#0033cc" />
<text x="110.000" y="420.000" text-anchor="middle" alignment-baseline="middle" font-size="1.000em" font-family="Arial, Helvetica, sans-serif">C</text>
<circle cx="110.000" cy="450.000" r="11.000" fill="#0033cc" />
<text x="110.000" y="450.000" text-anchor="middle" alignment-baseline="middle" font-size="1.000em" font-family="Arial, Helvetica, sans-serif">C</text>
<circle cx="110.000" cy="480.000" r="11.000" fill="#6600cc" />
<text x="110.000" y="480.000" text-anchor="middle" alignment-baseline="middle" font-size="1.000em" font-family="Arial, Helvetica, sans-serif">J</text>
<circle cx="110.000" cy="510.000" r="11.000" fill="#e62e00" />
<text x="110.000" y="510.000" text-anchor="middle" alignment-baseline="middle" font-size="1.000em" font-family="Arial, Helvetica, sans-serif">B</text>
<circle cx="110.000" cy="540.000" r="11.000" fill="#e62e00" />
<text x="110.000" y="540.000" text-anchor="middle" alignment-baseline="middle" font-size="1.000em" font-family="Arial, Helvetica, sans-serif">B</text>
<circle cx="140.000" cy="330.000" r="11.000" fill="#ffffff" />
<text x="140.000" y="330.000" text-anchor="middle" alignment-baseline="middle" font-size="1.000em" font-family="Arial, Helvetica, sans-serif">F</text>
<circle cx="140.000" cy="360.000" r="11.000" fill="#ffffff" />
<text x="140.000" y="360.000" text-anchor="middle" alignment-baseline="middle" font-size="1.000em" font-family="Arial, Helvetica, sans-serif">F</text>
<circle cx="140.000" cy="390.000" r="11.000" fill="#66ccff" />
<text x="140.000" y="390.000" text-anchor="middle" alignment-baseline="middle" font-size="1.000em" font-family="Arial, Helvetica, sans-serif">G</text>
<circle cx="140.000" cy="420.000" r="11.000" fill="#66ccff" />
<text x="140.000" y="420.000" text-anchor="middle" alignment-baseline="middle" font-size="1.000em" font-family="Arial, Helvetica, sans-serif">G</text>
<circle cx="140.000" cy="450.000" r="11.000" fill="#66ccff" />
<text x="140.000" y="450.000" text-anchor="middle" alignment-baseline="middle" font-size="1.000em" font-family="Arial, Helvetica, sans-serif">G</text>
<circle cx="140.000" cy="480.000" r="11.000" fill="#6600cc" />
<text x="140.000" y="480.000" text-anchor="middle" alignment-baseline="middle" font-size="1.000em" font-family="Arial, Helvetica, sans-serif">J</text>
<circle cx="140.000" cy="510.000" r="11.000" fill="#e62e00" />
<text x="140.000" y="510.000" text-anchor="middle" alignment-baseline="middle" font-size="1.000em" font-family="Arial, Helvetica, sans-serif">B</text>
<circle cx="140.000" cy="540.000" r="11.000" fill="#e62e00" />
<text x="140.000" y="540.000" text-anchor="middle" alignment-baseline="middle" font-size="1.000em" font-family="Arial, Helvetica, sans-serif">B</text>
<circle cx="140.000" cy="570.000" r="11.000" fill="#99cc00" />
<text x="140.000" y="570.000" text-anchor="middle" alignment-baseline="middle" font-size="1.000em" font-family="Arial, Helvetica, sans-serif">S</text>
<circle cx="170.000" cy="360.000" r="11.000" fill="#ffffff" />
<text x="170.000" y="360.000" text-anchor="middle" alignment-baseline="middle" font-size="1.000em" font-family="Arial, Helvetica, sans-serif">F</text>
<circle cx="170.000" cy="390.000" r="11.000" fill="#66ccff" />
<text x="170.000" y="390.000" text-anchor="middle" alignment-baseline="middle" font-size="1.000em" font-family="Arial, Helvetica, sans-serif">G</text>
<circle cx="170.000" cy="420.000" r="11.000" fill="#006600" />
<text x="170.000" y="420.000" text-anchor="middle" alignment-baseline="middle" font-size="1.000em" font-family="Arial, Helvetica, sans-serif">E</text>
<circle cx="170.000" cy="450.000" r="11.000" fill="#fdd807" />
<text x="170.000" y="450.000" text-anchor="middle" alignment-baseline="middle" font-size="1.000em" font-family="Arial, Helvetica, sans-serif">I</text>
<circle cx="170.000" cy="480.000" r="11.000" fill="#fdd807" />
<text x="170.000" y="480.000" text-anchor="middle" alignment-baseline="middle" font-size="1.000em" font-family="Arial, Helvetica, sans-serif">I</text>
<circle cx="170.000" cy="510.000" r="11.000" fill="#fdd807" />
<text x="170.000" y="510.000" text-anchor="middle" alignment-baseline="middle" font-size="1.000em" font-family="Arial, Helvetica, sans-serif">I</text>
<circle cx="170.000" cy="540.000" r="11.000" fill="#99cc00" />
<text x="170.000" y="540.000" text-anchor="middle" alignment-baseline="middle" font-size="1.000em" font-family="Arial, Helvetica, sans-serif">S</text>
<circle cx="170.000" cy="570.000" r="11.000" fill="#99cc00" />
<text x="170.000" y="570.000" text-anchor="middle" alignment-baseline="middle" font-size="1.000em" font-family="Arial, Helvetica, sans-serif">S</text>
<circle cx="170.000" cy="600.000" r="11.000" fill="#99cc00" />
<text x="170.000" y="600.000" text-anchor="middle" alignment-baseline="middle" font-size="1.000em" font-family="Arial, Helvetica, sans-serif">S</text>
<circle cx="200.000" cy="390.000" r="11.000" fill="#66ccff" />
<text x="200.000" y="390.000" text-anchor="middle" alignment-baseline="middle" font-size="1.000em" font-family="Arial, Helvetica, sans-serif">G</text>
<circle cx="200.000" cy="420.000" r="11.000" fill="#006600" />
<text x="200.000" y="420.000" text-anchor="middle" alignment-baseline="middle" font-size="1.000em" font-family="Arial, Helvetica, sans-serif">E</text>
<circle cx="200.000" cy="450.000" r="11.000" fill="#fdd807" />
<text x="200.000" y="450.000" text-anchor="middle" alignment-baseline="middle" font-size="1.000em" font-family="Arial, Helvetica, sans-serif">I</text>
<circle cx="200.000" cy="480.000" r="11.000" fill="#ffccff" />
<text x="200.000" y="480.000" text-anchor="middle" alignment-baseline="middle" font-size="1.000em" font-family="Arial, Helvetica, sans-serif">D</text>
<circle cx="200.000" cy="510.000" r="11.000" fill="#fdd807" />
<text x="200.000" y="510.000" text-anchor="middle" alignment-baseline="middle" font-size="1.000em" font-family="Arial, Helvetica, sans-serif">I</text>
<circle cx="200.000" cy="540.000" r="11.000" fill="#994d00" />
<text x="200.000" y="540.000" text-anchor="middle" alignment-baseline="middle" font-size="1.000em" font-family="Arial, Helvetica, sans-serif">R</text>
<circle cx="200.000" cy="570.000" r="11.000" fill="#994d00" />
<text x="200.000" y="570.000" text-anchor="middle" alignment-baseline="middle" font-size="1.000em" font-family="Arial, Helvetica, sans-serif">R</text>
<circle cx="230.000" cy="420.000" r="11.000" fill="#006600" />
<text x="230.000" y="420.000" text-anchor="middle" alignment-baseline="middle" font-size="1.000em" font-family="Arial, Helvetica, sans-serif">E</text>
<circle cx="230.000" cy="450.000" r="11.000" fill="#006600" />
<text x="230.000" y="450.000" text-anchor="middle" alignment-baseline="middle" font-size="1.000em" font-family="Arial, Helvetica, sans-serif">E</text>
<circle cx="230.000" cy="480.000" r="11.000" fill="#ffccff" />
<text x="230.000" y="480.000" text-anchor="middle" alignment-baseline="middle" font-size="1.000em" font-family="Arial, Helvetica, sans-serif">D</text>
<circle cx="230.000" cy="510.000" r="11.000" fill="#994d00" />
<text x="230.000" y="510.000" text-anchor="middle" alignment-baseline="middle" font-size="1.000em" font-family="Arial, Helvetica, sans-serif">R</text>
<circle cx="230.000" cy="540.000" r="11.000" fill="#994d00" />
<text x="230.000" y="540.000" text-anchor="middle" alignment-baseline="middle" font-size="1.000em" font-family="Arial, Helvetica, sans-serif">R</text>
<circle cx="260.000" cy="450.000" r="11.000" fill="#006600" />
<text x="260.000" y="450.000" text-anchor="middle" alignment-baseline="middle" font-size="1.000em" font-family="Arial, Helvetica, sans-serif">E</text>
<circle cx="260.000" cy="480.000" r="11.000" fill="#ffccff" />
<text x="260.000" y="480.000" text-anchor="middle" alignment-baseline="middle" font-size="1.000em" font-family="Arial, Helvetica, sans-serif">D</text>
<circle cx="260.000" cy="510.000" r="11.000" fill="#ffccff" />
<text x="260.000" y="510.000" text-anchor="middle" alignment-baseline="middle" font-size="1.000em" font-family="Arial, Helvetica, sans-serif">D</text>
<circle cx="290.000" cy="480.000" r="11.000" fill="#ffccff" />
<text x="290.000" y="480.000" text-anchor="middle" alignment-baseline="middle" font-size="1.000em" font-family="Arial, Helvetica, sans-serif">D</text>
</svg>
